<svg xmlns="http://www.w3.org/2000/svg" viewBox="0 0 64 64" role="img" data-origin="generated-owned-artwork" data-style-contract="helm-openbridge-navigation-v1" data-source-art="user-provided-BCNGEN6" data-shape-family="beacon-bcngen6-template"><title>BCNGEN69 BCNGEN6 beacon-family template</title><g stroke-linecap="round" stroke-linejoin="round"><defs><clipPath id="clip-BCNGEN69"><rect x="25" y="12" width="14" height="34" rx="2"/><rect x="18" y="46" width="28" height="4" rx="1.4"/><circle cx="32" cy="46" r="7"/></clipPath></defs><g data-fill-pattern="2-band-horizontal"><rect x="25" y="12" width="14" height="17" rx="2" fill="var(--yellow)"/><rect x="25" y="29" width="14" height="17" fill="var(--black)"/><rect x="18" y="46" width="28" height="4" rx="1.4" fill="var(--black)"/><circle cx="32" cy="46" r="7" fill="var(--black)"/></g><circle data-hole-role="s101-center-cutout" cx="32" cy="46" r="5.6" fill="var(--white)"/><g data-outline-role="outer-visible-edges" fill="none" stroke="var(--ink)" stroke-width="1.8"><path d="M27 12H37Q39 12 39 14V46H44.6Q46 46 46 47.4V48.6Q46 50 44.6 50H38.3C36.9 51.8 34.7 53 32 53C29.3 53 27.1 51.8 25.7 50H19.4Q18 50 18 48.6V47.4Q18 46 19.4 46H25V14Q25 12 27 12Z"/></g></g></svg>
