<svg xmlns="http://www.w3.org/2000/svg" viewBox="0 0 64 64" role="img" data-origin="generated-owned-artwork" data-style-contract="helm-openbridge-navigation-v1" data-repair-batch="towers-smokestack-family-v3"><title>TOWERS98 smokestack family preview candidate</title><g stroke-linecap="round" stroke-linejoin="round"><defs><clipPath id="clip_TOWERS98"><polygon points="29,4 35,4 41,58 23,58"/></clipPath></defs><rect x="20" y="4" width="6" height="10.8" fill="#f15469" clip-path="url(#clip_TOWERS98)" data-pattern="checker-tower"/><rect x="26" y="4" width="6" height="10.8" fill="#ffffff" clip-path="url(#clip_TOWERS98)" data-pattern="checker-tower"/><rect x="32" y="4" width="6" height="10.8" fill="#f15469" clip-path="url(#clip_TOWERS98)" data-pattern="checker-tower"/><rect x="38" y="4" width="6" height="10.8" fill="#ffffff" clip-path="url(#clip_TOWERS98)" data-pattern="checker-tower"/><rect x="20" y="14.8" width="6" height="10.8" fill="#ffffff" clip-path="url(#clip_TOWERS98)" data-pattern="checker-tower"/><rect x="26" y="14.8" width="6" height="10.8" fill="#f15469" clip-path="url(#clip_TOWERS98)" data-pattern="checker-tower"/><rect x="32" y="14.8" width="6" height="10.8" fill="#ffffff" clip-path="url(#clip_TOWERS98)" data-pattern="checker-tower"/><rect x="38" y="14.8" width="6" height="10.8" fill="#f15469" clip-path="url(#clip_TOWERS98)" data-pattern="checker-tower"/><rect x="20" y="25.6" width="6" height="10.8" fill="#f15469" clip-path="url(#clip_TOWERS98)" data-pattern="checker-tower"/><rect x="26" y="25.6" width="6" height="10.8" fill="#ffffff" clip-path="url(#clip_TOWERS98)" data-pattern="checker-tower"/><rect x="32" y="25.6" width="6" height="10.8" fill="#f15469" clip-path="url(#clip_TOWERS98)" data-pattern="checker-tower"/><rect x="38" y="25.6" width="6" height="10.8" fill="#ffffff" clip-path="url(#clip_TOWERS98)" data-pattern="checker-tower"/><rect x="20" y="36.4" width="6" height="10.8" fill="#ffffff" clip-path="url(#clip_TOWERS98)" data-pattern="checker-tower"/><rect x="26" y="36.4" width="6" height="10.8" fill="#f15469" clip-path="url(#clip_TOWERS98)" data-pattern="checker-tower"/><rect x="32" y="36.4" width="6" height="10.8" fill="#ffffff" clip-path="url(#clip_TOWERS98)" data-pattern="checker-tower"/><rect x="38" y="36.4" width="6" height="10.8" fill="#f15469" clip-path="url(#clip_TOWERS98)" data-pattern="checker-tower"/><rect x="20" y="47.2" width="6" height="10.8" fill="#f15469" clip-path="url(#clip_TOWERS98)" data-pattern="checker-tower"/><rect x="26" y="47.2" width="6" height="10.8" fill="#ffffff" clip-path="url(#clip_TOWERS98)" data-pattern="checker-tower"/><rect x="32" y="47.2" width="6" height="10.8" fill="#f15469" clip-path="url(#clip_TOWERS98)" data-pattern="checker-tower"/><rect x="38" y="47.2" width="6" height="10.8" fill="#ffffff" clip-path="url(#clip_TOWERS98)" data-pattern="checker-tower"/><polygon points="29,4 35,4 41,58 23,58" fill="none" stroke="#070707" stroke-width="1.8"/><path d="M20 58 H44" fill="none" stroke="#070707" stroke-width="1.8"/><circle cx="32" cy="58" r="3.5" fill="#ffffff" stroke="#070707" stroke-width="1.8"/></g></svg>