<svg width="64" height="64" viewBox="0 0 24 24" fill="currentColor" xmlns="http://www.w3.org/2000/svg">
<path fill-rule="evenodd" clip-rule="evenodd" d="M12 3L7 19H17L12 3ZM12 9.70522L9.72038 17H14.2796L12 9.70522Z" fill="currentColor"/>
<path d="M2 5V2H5V0H1C0.447715 0 0 0.447716 0 1V5H2Z" fill="currentColor"/>
<path d="M2 19H0V23C0 23.5523 0.447716 24 1 24H5V22H2V19Z" fill="currentColor"/>
<path d="M19 22V24H23C23.5523 24 24 23.5523 24 23V19H22V22H19Z" fill="currentColor"/>
<path d="M22 5H24V1C24 0.447715 23.5523 0 23 0H19V2H22V5Z" fill="currentColor"/>
</svg>
