<svg width="64" height="64" viewBox="0 0 24 24" fill="currentColor" xmlns="http://www.w3.org/2000/svg">
<path d="M2 5V2H5V0H1C0.447715 0 0 0.447716 0 1V5H2Z" fill="currentColor"/>
<path d="M2 19H0V23C0 23.5523 0.447716 24 1 24H5V22H2V19Z" fill="currentColor"/>
<path d="M19 22V24H23C23.5523 24 24 23.5523 24 23V19H22V22H19Z" fill="currentColor"/>
<path d="M22 5H24V1C24 0.447715 23.5523 0 23 0H19V2H22V5Z" fill="currentColor"/>
<path fill-rule="evenodd" clip-rule="evenodd" d="M2.96997 6.50012L1.96997 8.23217L8.20817 11.8338L5 21H19L17.7124 17.321L21.0225 19.2322L22.0225 17.5001L2.96997 6.50012ZM7.81896 19L9.97093 12.8515L15.0568 15.7878L16.181 19H7.81896Z" fill="currentColor"/>
<path d="M13.0308 9.99934L12 7.05418L11.3158 9.00916L9.553 7.99143L12 1L15.6864 11.5325L13.0308 9.99934Z" fill="currentColor"/>
</svg>
