<svg width="64" height="64" viewBox="0 0 24 24" fill="currentColor" xmlns="http://www.w3.org/2000/svg">
<path d="M1.39363 11.2929L2.10074 12L1.39363 12.7071L0.686523 12L1.39363 11.2929Z" fill="currentColor"/>
<path d="M14.1216 2.8076L15.5358 4.22181L14.8287 4.92892L13.4144 3.51471L14.1216 2.8076Z" fill="currentColor"/>
<path d="M3.51495 13.4142L4.92916 14.8284L4.22206 15.5355L2.80784 14.1213L3.51495 13.4142Z" fill="currentColor"/>
<path d="M16.95 5.63603L18.3642 7.05024L17.6571 7.75735L16.2429 6.34313L16.95 5.63603Z" fill="currentColor"/>
<path d="M6.34338 16.2426L7.75759 17.6568L7.05048 18.3639L5.63627 16.9497L6.34338 16.2426Z" fill="currentColor"/>
<path d="M19.7784 8.46445L21.1926 9.87867L20.4855 10.5858L19.0713 9.17156L19.7784 8.46445Z" fill="currentColor"/>
<path d="M9.1718 19.0711L10.586 20.4853L9.87891 21.1924L8.4647 19.7782L9.1718 19.0711Z" fill="currentColor"/>
<path d="M12.7073 1.39339L12.0002 2.10049L11.2931 1.39339L12.0002 0.686279L12.7073 1.39339Z" fill="currentColor"/>
<path d="M23.3139 12L22.6068 12.7071L21.8997 12L22.6068 11.2929L23.3139 12Z" fill="currentColor"/>
<path d="M12.7073 22.6066L12.0002 23.3137L11.2931 22.6066L12.0002 21.8995L12.7073 22.6066Z" fill="currentColor"/>
<path d="M10.586 3.51471L9.1718 4.92892L8.4647 4.22181L9.87891 2.8076L10.586 3.51471Z" fill="currentColor"/>
<path d="M21.1926 14.1213L19.7784 15.5355L19.0713 14.8284L20.4855 13.4142L21.1926 14.1213Z" fill="currentColor"/>
<path d="M7.75759 6.34313L6.34338 7.75735L5.63627 7.05024L7.05048 5.63603L7.75759 6.34313Z" fill="currentColor"/>
<path d="M18.3642 16.9497L16.95 18.3639L16.2429 17.6568L17.6571 16.2426L18.3642 16.9497Z" fill="currentColor"/>
<path d="M4.92916 9.17156L3.51495 10.5858L2.80784 9.87867L4.22206 8.46445L4.92916 9.17156Z" fill="currentColor"/>
<path d="M15.5358 19.7782L14.1216 21.1924L13.4144 20.4853L14.8287 19.0711L15.5358 19.7782Z" fill="currentColor"/>
<path d="M17.0002 12.4999V11.4999L7.00023 11.4999V12.4999H17.0002Z" fill="currentColor"/>
<path d="M15.8893 8.81793L15.1822 8.11083L8.11114 15.1819L8.81825 15.889L15.8893 8.81793Z" fill="currentColor"/>
<path d="M15.1822 15.889L15.8893 15.1819L8.81825 8.11083L8.11115 8.81793L15.1822 15.889Z" fill="currentColor"/>
<path d="M11.5001 17H12.5001V6.99999H11.5001V17Z" fill="currentColor"/>
</svg>
