<svg width="64" height="64" viewBox="0 0 24 24" fill="currentColor" xmlns="http://www.w3.org/2000/svg">
<path d="M9.5 15.0687C9.5 15.6745 9.5 15.9774 9.6198 16.1177C9.72374 16.2394 9.87967 16.304 10.0392 16.2914C10.2231 16.2769 10.4373 16.0627 10.8657 15.6344L13.9343 12.5657C14.1323 12.3677 14.2313 12.2687 14.2684 12.1546C14.3011 12.0541 14.3011 11.946 14.2684 11.8455C14.2313 11.7314 14.1323 11.6324 13.9343 11.4344L10.8657 8.36573C10.4373 7.93736 10.2231 7.72317 10.0392 7.7087C9.87967 7.69614 9.72374 7.76073 9.6198 7.88243C9.5 8.0227 9.5 8.3256 9.5 8.93142L9.5 15.0687Z" fill="currentColor"/>
</svg>
