<svg width="64" height="64" viewBox="0 0 24 24" fill="currentColor" xmlns="http://www.w3.org/2000/svg">
<path fill-rule="evenodd" clip-rule="evenodd" d="M18 12C18 15.3137 15.3137 18 12 18C8.68629 18 6 15.3137 6 12C6 8.68629 8.68629 6 12 6C15.3137 6 18 8.68629 18 12ZM13.5138 15.7036C13.0468 15.8947 12.5357 16 12 16C11.4643 16 10.9532 15.8947 10.4862 15.7036L12 11.1623L13.5138 15.7036ZM14.4001 15.2002L12 8C14.2091 8 16 9.79086 16 12C16 13.3086 15.3716 14.4705 14.4001 15.2002ZM9.59992 15.2002C8.62841 14.4705 8 13.3086 8 12C8 9.79086 9.79086 8 12 8L9.59992 15.2002Z" fill="currentColor"/>
<path d="M2 5V2H5V0H1C0.447715 0 0 0.447716 0 1V5H2Z" fill="currentColor"/>
<path d="M2 19H0V23C0 23.5523 0.447716 24 1 24H5V22H2V19Z" fill="currentColor"/>
<path d="M19 22V24H23C23.5523 24 24 23.5523 24 23V19H22V22H19Z" fill="currentColor"/>
<path d="M22 5H24V1C24 0.447715 23.5523 0 23 0H19V2H22V5Z" fill="currentColor"/>
</svg>
