<svg width="64" height="64" viewBox="0 0 24 24" fill="currentColor" xmlns="http://www.w3.org/2000/svg">
<path fill-rule="evenodd" clip-rule="evenodd" d="M9.17071 21H6V19.5H9.04148C9.15648 18.8145 9.50394 18.2079 10 17.7639L10 10H14V17.7639C14.4961 18.2079 14.8435 18.8145 14.9585 19.5H18V21H14.8293C14.4175 22.1652 13.3062 23 12 23C10.6938 23 9.58254 22.1652 9.17071 21ZM13.5 20C13.5 20.8284 12.8284 21.5 12 21.5C11.1716 21.5 10.5 20.8284 10.5 20C10.5 19.1716 11.1716 18.5 12 18.5C12.8284 18.5 13.5 19.1716 13.5 20Z" fill="currentColor"/>
<path d="M14 4H10L12 1L14 4Z" fill="currentColor"/>
<path d="M10 8H14L12 5L10 8Z" fill="currentColor"/>
</svg>
