<svg width="64" height="64" viewBox="0 0 24 24" fill="currentColor" xmlns="http://www.w3.org/2000/svg">
<path fill-rule="evenodd" clip-rule="evenodd" d="M9.5 4.5V6.5H14.5V4.5H9.5ZM9 3C8.44772 3 8 3.44772 8 4V7C8 7.55228 8.44772 8 9 8H15C15.5523 8 16 7.55228 16 7V4C16 3.44772 15.5523 3 15 3H9Z" fill="currentColor"/>
<path fill-rule="evenodd" clip-rule="evenodd" d="M15 10L17.5909 19.5H19V21H14.8293C14.4175 22.1652 13.3062 23 12 23C10.6938 23 9.58254 22.1652 9.17071 21H5V19.5H6.40909L9 10H15ZM9.04148 19.5H7.96388L10.1457 11.5H13.8543L16.0361 19.5H14.9585C14.7205 18.0811 13.4865 17 12 17C10.5135 17 9.27952 18.0811 9.04148 19.5ZM13.5 20C13.5 20.8284 12.8284 21.5 12 21.5C11.1716 21.5 10.5 20.8284 10.5 20C10.5 19.1716 11.1716 18.5 12 18.5C12.8284 18.5 13.5 19.1716 13.5 20Z" fill="currentColor"/>
</svg>
