<svg width="64" height="64" viewBox="0 0 24 24" fill="currentColor" xmlns="http://www.w3.org/2000/svg">
<path fill-rule="evenodd" clip-rule="evenodd" d="M16.6838 2C16.2754 2 15.9129 2.2613 15.7838 2.64868L14.4162 6.75132C14.2115 7.36562 14.6687 8 15.3162 8C15.7246 8 16.0871 7.7387 16.2162 7.35132L17.5838 3.24868C17.7885 2.63438 17.3313 2 16.6838 2Z" fill="currentColor"/>
<path fill-rule="evenodd" clip-rule="evenodd" d="M20 20H15C15 21.6569 13.6569 23 12 23C10.3431 23 9 21.6569 9 20H4V18.5H6.54404C6.19474 17.7389 6 16.8922 6 16C6 12.6863 8.68629 10 12 10C15.3137 10 18 12.6863 18 16C18 16.8922 17.8053 17.7389 17.456 18.5H20V20ZM9.40135 18.5C9.92006 17.6033 10.8896 17 12 17C13.1104 17 14.0799 17.6033 14.5987 18.5H15.7425C16.2215 17.7849 16.5 16.9261 16.5 16C16.5 13.5147 14.4853 11.5 12 11.5C9.51472 11.5 7.5 13.5147 7.5 16C7.5 16.9261 7.7785 17.7849 8.25754 18.5H9.40135ZM13.5 20C13.5 20.8284 12.8284 21.5 12 21.5C11.1716 21.5 10.5 20.8284 10.5 20C10.5 19.1716 11.1716 18.5 12 18.5C12.8284 18.5 13.5 19.1716 13.5 20Z" fill="currentColor"/>
</svg>
