<svg width="64" height="64" viewBox="0 0 24 24" fill="currentColor" xmlns="http://www.w3.org/2000/svg">
<path fill-rule="evenodd" clip-rule="evenodd" d="M15.0155 4.5L14.2155 6.5H16.9845L17.7845 4.5H15.0155ZM19.4514 4.37139C19.7142 3.71453 19.2304 3 18.523 3H14.677C14.2681 3 13.9004 3.24895 13.7486 3.62861L12.5486 6.62861C12.2858 7.28547 12.7696 8 13.477 8H17.323C17.7319 8 18.0996 7.75105 18.2514 7.37139L19.4514 4.37139Z" fill="currentColor"/>
<path fill-rule="evenodd" clip-rule="evenodd" d="M9.17071 21H2V19.5H4.27273L6 10H22L20.2727 19.5H22V21H14.8293C14.4175 22.1652 13.3062 23 12 23C10.6938 23 9.58254 22.1652 9.17071 21ZM20.2027 11.5L18.7481 19.5H14.9585C14.7205 18.0811 13.4865 17 12 17C10.5135 17 9.27952 18.0811 9.04148 19.5H5.79732L7.25186 11.5H20.2027ZM13.5 20C13.5 20.8284 12.8284 21.5 12 21.5C11.1716 21.5 10.5 20.8284 10.5 20C10.5 19.1716 11.1716 18.5 12 18.5C12.8284 18.5 13.5 19.1716 13.5 20Z" fill="currentColor"/>
</svg>
