<svg width="64" height="64" viewBox="0 0 24 24" fill="currentColor" xmlns="http://www.w3.org/2000/svg">
<path fill-rule="evenodd" clip-rule="evenodd" d="M4 2C2.89543 2 2 2.89543 2 4V20C2 21.1046 2.89543 22 4 22H20C21.1046 22 22 21.1046 22 20V4C22 2.89543 21.1046 2 20 2H4Z" fill="currentColor"/>
<path d="M4 2.5H20C20.8284 2.5 21.5 3.17157 21.5 4V20C21.5 20.8284 20.8284 21.5 20 21.5H4C3.17157 21.5 2.5 20.8284 2.5 20V4C2.5 3.17157 3.17157 2.5 4 2.5Z" stroke="currentColor"/>
<path d="M11 14V6H13V14H11Z" fill="currentColor"/>
<path d="M13 16H11V18H13V16Z" fill="currentColor"/>
</svg>
