<svg width="64" height="64" viewBox="0 0 24 24" fill="currentColor" xmlns="http://www.w3.org/2000/svg">
<path fill-rule="evenodd" clip-rule="evenodd" d="M12 6H15V16H16V18H11.5C9.567 18 8 16.433 8 14.5C8 12.567 9.567 11 11.5 11H13V8H12V6ZM13 13H11.5C10.6716 13 10 13.6716 10 14.5C10 15.3284 10.6716 16 11.5 16H13V13Z" fill="currentColor"/>
<path fill-rule="evenodd" clip-rule="evenodd" d="M20 4H4V20H20V4ZM4 2C2.89543 2 2 2.89543 2 4V20C2 21.1046 2.89543 22 4 22H20C21.1046 22 22 21.1046 22 20V4C22 2.89543 21.1046 2 20 2H4Z" fill="currentColor"/>
</svg>
