<svg width="64" height="64" viewBox="0 0 24 24" fill="currentColor" xmlns="http://www.w3.org/2000/svg">
<path fill-rule="evenodd" clip-rule="evenodd" d="M21 19H3V17H21V19Z" fill="currentColor"/>
<path fill-rule="evenodd" clip-rule="evenodd" d="M11 15H3V13H11V15Z" fill="currentColor"/>
<path fill-rule="evenodd" clip-rule="evenodd" d="M21 15L13 15V13L21 13V15Z" fill="currentColor"/>
<path fill-rule="evenodd" clip-rule="evenodd" d="M5 7H3V5H5V7Z" fill="currentColor"/>
<path fill-rule="evenodd" clip-rule="evenodd" d="M7 11H3V9H7V11Z" fill="currentColor"/>
<path fill-rule="evenodd" clip-rule="evenodd" d="M9 7H7V5H9V7Z" fill="currentColor"/>
<path fill-rule="evenodd" clip-rule="evenodd" d="M15 11H9V9H15V11Z" fill="currentColor"/>
<path fill-rule="evenodd" clip-rule="evenodd" d="M13 7H11V5H13V7Z" fill="currentColor"/>
<path fill-rule="evenodd" clip-rule="evenodd" d="M17 7H15V5H17V7Z" fill="currentColor"/>
<path fill-rule="evenodd" clip-rule="evenodd" d="M21 11H17V9H21V11Z" fill="currentColor"/>
<path fill-rule="evenodd" clip-rule="evenodd" d="M21 7H19V5H21V7Z" fill="currentColor"/>
</svg>
