<svg width="64" height="64" viewBox="0 0 24 24" fill="currentColor" xmlns="http://www.w3.org/2000/svg">
<path fill-rule="evenodd" clip-rule="evenodd" d="M17.262 13.1522C17.7377 12.7799 18.1543 12.3761 18.5 12C18.1543 11.6239 17.7377 11.2201 17.262 10.8478C16.2422 10.0497 15.0867 9.5 13.8526 9.5L5.5 9.5L5.5 14.5L13.8526 14.5C15.0867 14.5 16.2422 13.9503 17.262 13.1522ZM7 13L13.8526 13C14.6213 13 15.4453 12.6604 16.3002 12C15.4453 11.3396 14.6213 11 13.8526 11L7 11V13Z" fill="currentColor"/>
<path fill-rule="evenodd" clip-rule="evenodd" d="M4 12.75H0V11.25H4V12.75Z" fill="currentColor"/>
<path fill-rule="evenodd" clip-rule="evenodd" d="M24 12.75H20V11.25H24V12.75Z" fill="currentColor"/>
</svg>
