<svg width="64" height="64" viewBox="0 0 24 24" fill="currentColor" xmlns="http://www.w3.org/2000/svg">
<path d="M16.9498 15.5355L15.5355 16.9497L16.9498 18.364L18.364 16.9497L16.9498 15.5355Z" fill="currentColor"/>
<path d="M13 18V20H11V18H13Z" fill="currentColor"/>
<path d="M8.46447 16.9498L7.05025 15.5355L5.63604 16.9498L7.05025 18.364L8.46447 16.9498Z" fill="currentColor"/>
<path d="M4 13V11H6L6 13H4Z" fill="currentColor"/>
<path d="M7.05025 5.63604L5.63604 7.05025L7.05025 8.46446L8.46447 7.05025L7.05025 5.63604Z" fill="currentColor"/>
<path d="M11 4H13V6H11V4Z" fill="currentColor"/>
<path d="M18.364 7.05025L16.9497 5.63604L15.5355 7.05025L16.9497 8.46447L18.364 7.05025Z" fill="currentColor"/>
<path d="M18 11H20V13H18V11Z" fill="currentColor"/>
<path fill-rule="evenodd" clip-rule="evenodd" d="M12 13C12.5523 13 13 12.5523 13 12C13 11.4477 12.5523 11 12 11C11.4477 11 11 11.4477 11 12C11 12.5523 11.4477 13 12 13ZM12 15C13.6569 15 15 13.6569 15 12C15 10.3431 13.6569 9 12 9C10.3431 9 9 10.3431 9 12C9 13.6569 10.3431 15 12 15Z" fill="currentColor"/>
</svg>
