<svg width="64" height="64" viewBox="0 0 24 24" fill="currentColor" xmlns="http://www.w3.org/2000/svg">
<path fill-rule="evenodd" clip-rule="evenodd" d="M14.8331 9.17621C14.83 9.17312 14.8269 9.17002 14.8238 9.16694C14.1003 8.4458 13.1022 8 12 8C10.8978 8 9.89964 8.44583 9.17615 9.167C9.1731 9.17005 9.17005 9.1731 9.167 9.17615C8.44583 9.89964 8 10.8978 8 12C8 14.2091 9.79086 16 12 16C14.2091 16 16 14.2091 16 12C16 10.8978 15.5542 9.8997 14.8331 9.17621ZM12 14C13.1046 14 14 13.1046 14 12C14 10.8954 13.1046 10 12 10C10.8954 10 10 10.8954 10 12C10 13.1046 10.8954 14 12 14ZM18.364 4.22182L19.7782 5.63604L16.9497 8.46447L16.237 7.75175L15.5355 7.05025L18.364 4.22182ZM4.22183 5.63604L5.63605 4.22183L8.46447 7.05025L7.76316 7.75157L7.75175 7.76298L7.05026 8.46447L4.22183 5.63604ZM7.05025 15.5355L8.46446 16.9498L5.63603 19.7782L4.22182 18.364L7.05025 15.5355ZM16.9498 15.5355L19.7782 18.364L18.364 19.7782L15.5355 16.9497L16.9498 15.5355ZM11 2H13V6H11V2ZM2 13V11H6V13H2ZM13 22H11V18H13V22ZM22 11V13H18V11H22Z" fill="currentColor"/>
</svg>
