<svg width="64" height="64" viewBox="0 0 24 24" fill="currentColor" xmlns="http://www.w3.org/2000/svg">
<path d="M6.99916 6H0V18H6.99857L12.99 12L6.99916 6Z" fill="currentColor"/>
<path d="M12.6474 18H24V6H12.6474L18.6474 12L12.6474 18Z" fill="currentColor"/>
<path d="M7.99713 17L6.99857 18H0V17H7.99713Z" fill="currentColor"/>
<path d="M0 7H7.99764L6.99916 6H0V7Z" fill="currentColor"/>
<path d="M24 17H13.6474L12.6474 18H24V17Z" fill="currentColor"/>
<path d="M13.6474 7H24V6H12.6474L13.6474 7Z" fill="currentColor"/>
<path fill-rule="evenodd" clip-rule="evenodd" d="M8.48979 6L14.4807 12L8.48926 18H11.3107L17.3107 12L11.3107 6H8.48979Z" fill="currentColor"/>
</svg>
