<svg width="64" height="64" viewBox="0 0 24 24" fill="currentColor" xmlns="http://www.w3.org/2000/svg">
<g clip-path="url(#clip0_11002_2617)">
<path d="M12 1C18.0751 1 23 5.92487 23 12C23 18.0751 18.0751 23 12 23C5.92487 23 1 18.0751 1 12C1 5.92487 5.92487 1 12 1Z" fill="currentColor"/>
<path fill-rule="evenodd" clip-rule="evenodd" d="M12 24C18.6274 24 24 18.6274 24 12C24 5.37258 18.6274 0 12 0C5.37258 0 0 5.37258 0 12C0 18.6274 5.37258 24 12 24ZM12 23C18.0751 23 23 18.0751 23 12C23 5.92487 18.0751 1 12 1C5.92487 1 1 5.92487 1 12C1 18.0751 5.92487 23 12 23Z" fill="currentColor"/>
<path d="M11.0026 14.0588L8.63804 6.86505H8.58521C8.59401 7.03422 8.60722 7.28374 8.62484 7.61361C8.64245 7.93503 8.66006 8.28604 8.67768 8.66667C8.69529 9.03883 8.70409 9.38562 8.70409 9.70704V14.0588H7V5H9.61559L11.9141 11.9781H11.9538L14.3976 5H17V14.0588H15.2166V9.63091C15.2166 9.33487 15.221 9.00923 15.2299 8.65398C15.2475 8.29027 15.2607 7.94771 15.2695 7.6263C15.2871 7.29642 15.3003 7.04691 15.3091 6.87774H15.2563L12.7464 14.0588H11.0026Z" fill="currentColor"/>
<path d="M17 17.3529V19H7V17.3529H17Z" fill="currentColor"/>
</g>
<defs>
<clipPath id="clip0_11002_2617">
<rect width="64" height="64" fill="currentColor"/>
</clipPath>
</defs>
</svg>
