<svg width="64" height="64" viewBox="0 0 24 24" fill="currentColor" xmlns="http://www.w3.org/2000/svg">
<path d="M12 4C12.5523 4 13 4.44772 13 5V12C13 12.5523 12.5523 13 12 13L7 13C6.44772 13 6 12.5523 6 12C6 11.4477 6.44772 11 7 11H11V5C11 4.44772 11.4477 4 12 4Z" fill="currentColor"/>
<path fill-rule="evenodd" clip-rule="evenodd" d="M23 12C23 18.0751 18.0751 23 12 23C5.92487 23 1 18.0751 1 12C1 5.92487 5.92487 1 12 1C18.0751 1 23 5.92487 23 12ZM22 12C22 17.5228 17.5228 22 12 22C6.47715 22 2 17.5228 2 12C2 6.47715 6.47715 2 12 2C17.5228 2 22 6.47715 22 12Z" fill="currentColor"/>
</svg>
