<svg width="64" height="64" viewBox="0 0 24 24" fill="currentColor" xmlns="http://www.w3.org/2000/svg">
<g clip-path="url(#clip0_8040_1507)">
<path d="M6 1V7H4V9H10V7H8V1H16V11H7.5C6.67157 11 6 11.6716 6 12.5V23H1V1H6Z" fill="currentColor"/>
<path d="M23 23H18V17H20V15H14V17H16V23H8V13H16.5C17.3284 13 18 12.3284 18 11.5V1H23V23Z" fill="currentColor"/>
<path fill-rule="evenodd" clip-rule="evenodd" d="M0 24V0H24V24H0ZM16 1L8 1V7H10V9H4V7H6V1L1 1L1 23H6L6 12.5C6 11.6716 6.67157 11 7.5 11H16L16 1ZM16.5 13C17.3284 13 18 12.3284 18 11.5V1L23 1V23H18V17H20V15H14V17H16V23H8L8 13H16.5Z" fill="currentColor"/>
</g>
<defs>
<clipPath id="clip0_8040_1507">
<rect width="64" height="64" fill="currentColor"/>
</clipPath>
</defs>
</svg>
