<svg width="64" height="64" viewBox="0 0 24 24" fill="currentColor" xmlns="http://www.w3.org/2000/svg">
<path d="M11 9.1709C9.99196 9.52722 9.23079 10.4068 9.04395 11.4834L7.53027 9.96973C7.23738 9.67683 6.76262 9.67683 6.46973 9.96973C6.17683 10.2626 6.17683 10.7374 6.46973 11.0303L11 15.5605V23H1V1H11V9.1709Z" fill="currentColor"/>
<path d="M23 23H13V15.5605L17.5303 11.0303C17.8232 10.7374 17.8232 10.2626 17.5303 9.96973C17.2374 9.67683 16.7626 9.67683 16.4697 9.96973L14.9561 11.4834C14.7692 10.4068 14.008 9.52722 13 9.1709V1H23V23Z" fill="currentColor"/>
<path d="M12 10.5C12.8284 10.5 13.5 11.1716 13.5 12C13.5 12.8284 12.8284 13.5 12 13.5C11.1716 13.5 10.5 12.8284 10.5 12C10.5 11.1716 11.1716 10.5 12 10.5Z" fill="currentColor"/>
<path fill-rule="evenodd" clip-rule="evenodd" d="M0 1V0H1H23H24V1V23V24H23H1H0V23V1ZM11 23H1L1 1H11V9.17071C9.99188 9.52703 9.23108 10.4069 9.04428 11.4836L7.53033 9.96967C7.23744 9.67678 6.76256 9.67678 6.46967 9.96967C6.17678 10.2626 6.17678 10.7374 6.46967 11.0303L11 15.5607V23ZM23 23H13V15.5607L17.5303 11.0303C17.8232 10.7374 17.8232 10.2626 17.5303 9.96967C17.2374 9.67678 16.7626 9.67678 16.4697 9.96967L14.9557 11.4836C14.7689 10.4069 14.0081 9.52703 13 9.17071V1L23 1V23ZM12 13.5C12.8284 13.5 13.5 12.8284 13.5 12C13.5 11.1716 12.8284 10.5 12 10.5C11.1716 10.5 10.5 11.1716 10.5 12C10.5 12.8284 11.1716 13.5 12 13.5Z" fill="currentColor"/>
</svg>
