<svg width="64" height="64" viewBox="0 0 24 24" fill="currentColor" xmlns="http://www.w3.org/2000/svg">
<g clip-path="url(#clip0_8040_1563)">
<path d="M16.5 1L12.5 7H15.4922V23H7.5L11.5 17H8.49219V1H16.5Z" fill="currentColor"/>
<path d="M23 1V23H17.4922V7H20.5L16.5 1H23Z" fill="currentColor"/>
<path d="M6.49219 1V17H3.5L7.5 23H1V1H6.49219Z" fill="currentColor"/>
<path d="M0 24V0H24V24H0ZM16.5 1L8.49223 1V17.0001H11.5L7.5 23.0001L3.5 17.0001H6.49223L6.49223 1L1 1L1 23L7.5 23.0001L15.4922 23V7H12.5L16.5 1ZM16.5 1L20.5 7H17.4922V23H23V1L16.5 1Z" fill="currentColor"/>
</g>
<defs>
<clipPath id="clip0_8040_1563">
<rect width="64" height="64" fill="currentColor"/>
</clipPath>
</defs>
</svg>
