<svg width="64" height="64" viewBox="0 0 24 24" fill="currentColor" xmlns="http://www.w3.org/2000/svg">
<path d="M2 22H5V20H2V22Z" fill="currentColor"/>
<path d="M7 22H11V20H7V22Z" fill="currentColor"/>
<path d="M13 22H17V20H13V22Z" fill="currentColor"/>
<path d="M19 22H22V20H19V22Z" fill="currentColor"/>
<path fill-rule="evenodd" clip-rule="evenodd" d="M12 2C8.68286 2 6 4.59034 6 7.79312C6 12.1379 12 18 12 18C12 18 18 12.1379 18 7.79312C18 4.59034 15.3171 2 12 2ZM12.0376 10.0752C13.1629 10.0752 14.0752 9.16293 14.0752 8.0376C14.0752 6.91226 13.1629 6 12.0376 6C10.9123 6 10 6.91226 10 8.0376C10 9.16293 10.9123 10.0752 12.0376 10.0752Z" fill="currentColor"/>
</svg>
