<svg width="64" height="64" viewBox="0 0 24 24" fill="currentColor" xmlns="http://www.w3.org/2000/svg">
<path d="M9 2C8.44772 2 8 2.44772 8 3V4H18V3C18 2.44772 17.5523 2 17 2H9Z" fill="currentColor"/>
<path fill-rule="evenodd" clip-rule="evenodd" d="M8 8C8 6.89543 8.89543 6 10 6H16C17.1046 6 18 6.89543 18 8V16C18 17.1046 17.1046 18 16 18H10C8.89543 18 8 17.1046 8 16V8ZM10 8H16V16H10V8Z" fill="currentColor"/>
<path d="M8 20H20V2H22V21C22 21.5523 21.5523 22 21 22H9C8.44772 22 8 21.5523 8 21V20Z" fill="currentColor"/>
<path d="M2.97363 7.36584L5.57171 8.86584L6.57171 7.13379L3.97363 5.63379L2.97363 7.36584Z" fill="currentColor"/>
<path d="M2 13H5V11H2V13Z" fill="currentColor"/>
<path d="M6.57269 16.8658L3.97461 18.3658L2.97461 16.6338L5.57269 15.1338L6.57269 16.8658Z" fill="currentColor"/>
</svg>
