<svg width="64" height="64" viewBox="0 0 24 24" fill="currentColor" xmlns="http://www.w3.org/2000/svg">
<path d="M8 2C7.44772 2 7 2.44772 7 3V4H17V3C17 2.44772 16.5523 2 16 2H8Z" fill="currentColor"/>
<path fill-rule="evenodd" clip-rule="evenodd" d="M7 8C7 6.89543 7.89543 6 9 6H15C16.1046 6 17 6.89543 17 8V16C17 17.1046 16.1046 18 15 18H9C7.89543 18 7 17.1046 7 16V8ZM9 8H15V16H9V8Z" fill="currentColor"/>
<path d="M7 20H17V21C17 21.5523 16.5523 22 16 22H8C7.44772 22 7 21.5523 7 21V20Z" fill="currentColor"/>
<rect x="9" y="8" width="6" height="8" fill="currentColor"/>
</svg>
