<svg width="64" height="64" viewBox="0 0 24 24" fill="currentColor" xmlns="http://www.w3.org/2000/svg">
<path d="M4 21C3.45 21 2.97917 20.8042 2.5875 20.4125C2.19583 20.0208 2 19.55 2 19V5C2 4.45 2.19583 3.97917 2.5875 3.5875C2.97917 3.19583 3.45 3 4 3H10L12 5H20C20.55 5 21.0208 5.19583 21.4125 5.5875C21.8042 5.97917 22 6.45 22 7V19C22 19.55 21.8042 20.0208 21.4125 20.4125C21.0208 20.8042 20.55 21 20 21H4ZM4 19H20V7H11.175L9.175 5H4V19Z" fill="currentColor"/>
<path d="M15.233 13.5727L9.74091 16.5926C9.40769 16.7758 9 16.5347 9 16.1545V9.8778C9 9.49031 9.42173 9.25009 9.75503 9.44773L15.2471 12.7045C15.5799 12.9019 15.5721 13.3863 15.233 13.5727Z" fill="currentColor"/>
</svg>
