<svg width="64" height="64" viewBox="0 0 24 24" fill="currentColor" xmlns="http://www.w3.org/2000/svg">
<path d="M23 1H11V3.25H23V1Z" fill="currentColor"/>
<path d="M1 1H9V23H1V5.75H4.75V19H6.25V4.25H1V1Z" fill="currentColor"/>
<path d="M23 20.75V23H11V20.75H23Z" fill="currentColor"/>
<path d="M23 12V19.25H11V12.75H17V16L23 12Z" fill="currentColor"/>
<path d="M23 4.75V12L17 8V11.25H11V4.75H23Z" fill="currentColor"/>
<path fill-rule="evenodd" clip-rule="evenodd" d="M0 1C0 0.447716 0.447715 0 1 0H23C23.5523 0 24 0.447715 24 1V23C24 23.5523 23.5523 24 23 24H1C0.447716 24 0 23.5523 0 23V1ZM11 1H23V3.25H11V1ZM9 1H1V4.25H6.25V19H4.75V5.75H1V23H9V1ZM11 23H23V20.75H11V23ZM23 19.25V12V4.75H11V11.25H17V8L23 12L17 16V12.75H11V19.25H23Z" fill="currentColor"/>
</svg>
