<svg width="64" height="64" viewBox="0 0 24 24" fill="currentColor" xmlns="http://www.w3.org/2000/svg">
<g clip-path="url(#clip0_7025_3431)">
<path d="M12 0C18.6274 0 24 5.37258 24 12C24 18.6274 18.6274 24 12 24C5.37258 24 0 18.6274 0 12C0 5.37258 5.37258 0 12 0ZM12 2C6.47715 2 2 6.47715 2 12C2 17.5228 6.47715 22 12 22C17.5228 22 22 17.5228 22 12C22 6.47715 17.5228 2 12 2ZM12 4C16.4183 4 20 7.58172 20 12C20 16.4183 16.4183 20 12 20C7.58172 20 4 16.4183 4 12C4 7.58172 7.58172 4 12 4ZM7.89844 16H9.75879L10.4307 13.8877H13.5742L14.2461 16H16.1064L13.0342 7.39648H10.958L7.89844 16ZM12.1465 9.25586C12.2105 9.46386 12.2749 9.67188 12.3389 9.87988C12.4029 10.0799 12.4541 10.2441 12.4941 10.3721L13.1543 12.4355H10.874L11.5225 10.3721C11.5544 10.2841 11.5984 10.1402 11.6543 9.94043C11.7183 9.73243 11.7827 9.51599 11.8467 9.29199C11.9106 9.06012 11.962 8.86405 12.002 8.7041C12.0419 8.85607 12.0905 9.03991 12.1465 9.25586Z" fill="currentColor"/>
</g>
<defs>
<clipPath id="clip0_7025_3431">
<rect width="64" height="64" fill="currentColor"/>
</clipPath>
</defs>
</svg>
