<svg width="64" height="64" viewBox="0 0 24 24" fill="currentColor" xmlns="http://www.w3.org/2000/svg">
<path fill-rule="evenodd" clip-rule="evenodd" d="M6.99976 11.9999C6.99976 10.6738 7.52654 9.40202 8.46422 8.46434C9.4019 7.52666 10.6737 6.99988 11.9998 6.99988C13.3258 6.99988 14.5976 7.52666 15.5353 8.46434L16.2424 9.17145L9.17133 16.2425L8.46422 15.5354C7.52654 14.5977 6.99976 13.326 6.99976 11.9999ZM9.87843 9.87856C9.31583 10.4412 8.99976 11.2042 8.99976 11.9999C8.99976 12.4516 9.10163 12.8928 9.29265 13.2928L13.2926 9.29277C12.8927 9.10175 12.4515 8.99988 11.9998 8.99988C11.2041 8.99988 10.441 9.31595 9.87843 9.87856Z" fill="currentColor"/>
<path d="M3.51447 19.0709L6.3429 16.2425L7.75711 17.6567L4.92869 20.4852L3.51447 19.0709Z" fill="currentColor"/>
<path d="M0.999756 10.9999H4.99976V12.9999H0.999756V10.9999Z" fill="currentColor"/>
<path d="M4.92874 3.51462L7.75717 6.34304L6.34295 7.75726L3.51453 4.92883L4.92874 3.51462Z" fill="currentColor"/>
<path d="M12.9998 0.999878V4.99988H10.9998V0.999878H12.9998Z" fill="currentColor"/>
<path d="M20.4851 4.92878L17.6567 7.75721L16.2425 6.343L19.0709 3.51457L20.4851 4.92878Z" fill="currentColor"/>
<path d="M20.1539 11C20.8 11 21.4154 11.088 22 11.253C19.5016 11.9515 17.6924 14.036 17.6924 16.5C17.6924 18.964 19.5016 21.0485 22 21.747C21.4154 21.912 20.8 22 20.1539 22C16.757 22 14 19.536 14 16.5C14 13.464 16.757 11 20.1539 11Z" fill="currentColor"/>
</svg>
