<svg width="64" height="64" viewBox="0 0 24 24" fill="currentColor" xmlns="http://www.w3.org/2000/svg">
<path d="M7 19.499C7 20.8797 5.88071 21.999 4.5 21.999C3.11929 21.999 2 20.8797 2 19.499C2 18.1182 3.11929 16.999 4.5 16.999C5.88071 16.999 7 18.1182 7 19.499Z" fill="currentColor"/>
<path d="M20.499 18.4989H22.499V20.4989H20.499V18.4989Z" fill="currentColor"/>
<path d="M15.1059 7.47882L16.5201 6.0646L17.9343 7.47882L16.5201 8.89303L15.1059 7.47882Z" fill="currentColor"/>
<path d="M19.695 14.3922L21.6269 13.8745L22.1445 15.8064L20.2127 16.324L19.695 14.3922Z" fill="currentColor"/>
<path d="M17.8555 10.6335L19.5876 9.63346L20.5876 11.3655L18.8555 12.3655L17.8555 10.6335Z" fill="currentColor"/>
<path d="M11.633 5.14344L12.633 3.41139L14.3651 4.41139L13.3651 6.14344L11.633 5.14344Z" fill="currentColor"/>
<path d="M7.67471 3.78642L8.19234 1.85456L10.1242 2.3722L9.60656 4.30405L7.67471 3.78642Z" fill="currentColor"/>
<path d="M3.49963 3.5L3.49963 1.5L5.49963 1.5V3.5H3.49963Z" fill="currentColor"/>
</svg>
