<svg width="64" height="64" viewBox="0 0 24 24" fill="currentColor" xmlns="http://www.w3.org/2000/svg">
<path d="M12 21C16.6326 21 20.4476 17.5 20.9451 13L3.05493 13C3.55238 17.5 7.36745 21 12 21Z" fill="currentColor"/>
<path d="M12 3C16.6326 3 20.4476 6.50005 20.9451 11L3.05493 11C3.55238 6.50005 7.36745 3 12 3Z" fill="currentColor"/>
<path fill-rule="evenodd" clip-rule="evenodd" d="M23 12C23 18.0751 18.0751 23 12 23C5.92487 23 1 18.0751 1 12C1 5.92487 5.92487 1 12 1C18.0751 1 23 5.92487 23 12ZM20.9451 13C20.4476 17.5 16.6326 21 12 21C7.36745 21 3.55237 17.5 3.05493 13L20.9451 13ZM20.9451 11C20.4476 6.50005 16.6326 3 12 3C7.36745 3 3.55237 6.50005 3.05493 11L20.9451 11Z" fill="currentColor"/>
</svg>
