<svg width="64" height="64" viewBox="0 0 24 24" fill="currentColor" xmlns="http://www.w3.org/2000/svg">
<path d="M4 8V4H8V2H4C2.89543 2 2 2.89543 2 4V8H4Z" fill="currentColor"/>
<path d="M4 16H2V20C2 21.1046 2.89543 22 4 22H8V20H4V16Z" fill="currentColor"/>
<path d="M16 20V22H20C21.1046 22 22 21.1046 22 20V16H20V20H16Z" fill="currentColor"/>
<path d="M20 8H22V4.00002C22 2.89546 21.1046 2.00003 20 2.00002L16 2V4H20V8Z" fill="currentColor"/>
<path d="M16.707 8.70703L13.4141 12L16.707 15.293L15.293 16.707L12 13.4141L8.70703 16.707L7.29297 15.293L10.5859 12L7.29297 8.70703L8.70703 7.29297L12 10.5859L15.293 7.29297L16.707 8.70703Z" fill="currentColor"/>
</svg>
