<svg width="64" height="64" viewBox="0 0 24 24" fill="currentColor" xmlns="http://www.w3.org/2000/svg">
<path fill-rule="evenodd" clip-rule="evenodd" d="M11 0V10L3.5547 5.03647C2.89014 4.59343 2 5.06982 2 5.86852V18.1315C2 18.9302 2.89015 19.4066 3.5547 18.9635L11 14H13L20.4453 18.9635C21.1099 19.4066 22 18.9302 22 18.1315V5.86852C22 5.06982 21.1099 4.59343 20.4453 5.03647L13 10V0H11ZM9 14.1315V9.86852L3 5.86852L3 18.1315L9 14.1315ZM10 13.4648V10.5352L10.6972 11H13.3028L14 10.5352V13.4648L13.3028 13H10.6972L10 13.4648ZM15 14.1315V9.86852L21 5.86852L21 18.1315L15 14.1315Z" fill="currentColor"/>
<path fill-rule="evenodd" clip-rule="evenodd" d="M9 14.1311L3 18.1311L3 5.86816L9 9.86817V14.1311ZM15 9.86816V14.1311L21 18.1311L21 5.86816M21 5.86816L15 9.86816L21 5.86816Z" fill="currentColor"/>
<path fill-rule="evenodd" clip-rule="evenodd" d="M10 13.4648L10.6972 13H13.3028L14 13.4648V10.5352L13.3028 11H10.6972L10 10.5352V13.4648Z" fill="currentColor"/>
</svg>
