<svg width="64" height="64" viewBox="0 0 24 24" fill="currentColor" xmlns="http://www.w3.org/2000/svg">
<path fill-rule="evenodd" clip-rule="evenodd" d="M11 0V10L3.5547 5.03647C2.89015 4.59343 2 5.06982 2 5.86852V18.1315C2 18.9302 2.89015 19.4066 3.5547 18.9635L11 14H13L20.4453 18.9635C21.1099 19.4066 22 18.9302 22 18.1315V5.86852C22 5.06982 21.1099 4.59343 20.4453 5.03647L13 10V0H11ZM3 5.86852L10.6972 11H13.3028L21 5.86852V18.1315L13.3028 13H10.6972L3 18.1315L3 5.86852Z" fill="currentColor"/>
<path d="M3 5.86816V18.1311L10.6972 12.9996H13.3028L21 18.1311V5.86816L13.3028 10.9996H10.6972L3 5.86816Z" fill="currentColor"/>
</svg>
