<svg width="64" height="64" viewBox="0 0 24 24" fill="currentColor" xmlns="http://www.w3.org/2000/svg">
<path fill-rule="evenodd" clip-rule="evenodd" d="M4.6 7.99993C4.03995 7.99993 3.75992 7.99993 3.54601 8.10892C3.35785 8.20479 3.20487 8.35778 3.10899 8.54594C3 8.75985 3 9.03988 3 9.59993V14.3999C3 14.96 3 15.24 3.10899 15.4539C3.20487 15.6421 3.35785 15.7951 3.54601 15.8909C3.75992 15.9999 4.03995 15.9999 4.6 15.9999H11L16.6343 21.6342C17.0627 22.0626 17.2769 22.2768 17.4608 22.2913C17.6203 22.3038 17.7763 22.2393 17.8802 22.1175C18 21.9773 18 21.6744 18 21.0686V2.9313C18 2.32548 18 2.02257 17.8802 1.88231C17.7763 1.76061 17.6203 1.69602 17.4608 1.70858C17.2769 1.72305 17.0627 1.93724 16.6343 2.36561L11 7.99993H4.6Z" fill="currentColor"/>
</svg>
