<svg width="64" height="64" viewBox="0 0 24 24" fill="currentColor" xmlns="http://www.w3.org/2000/svg">
<path fill-rule="evenodd" clip-rule="evenodd" d="M6 6C6 3.23858 8.23858 1 11 1H13C15.7614 1 18 3.23858 18 6V23H6V6Z" fill="currentColor"/>
<path d="M9 12H11V14H9V12Z" fill="currentColor"/>
<path d="M11 9H9V11H11V9Z" fill="currentColor"/>
<path d="M9 15H11V17H9V15Z" fill="currentColor"/>
<path d="M11 18H9V20H11V18Z" fill="currentColor"/>
<path d="M13 12H15V14H13V12Z" fill="currentColor"/>
<path d="M15 9H13V11H15V9Z" fill="currentColor"/>
<path d="M13 15H15V17H13V15Z" fill="currentColor"/>
<path d="M15 18H13V20H15V18Z" fill="currentColor"/>
<path fill-rule="evenodd" clip-rule="evenodd" d="M6 6C6 3.23858 8.23858 1 11 1H13C15.7614 1 18 3.23858 18 6V23H6V6ZM11 2.5H13C14.933 2.5 16.5 4.067 16.5 6V7.25C14.3593 4.0389 9.64073 4.0389 7.5 7.25V6C7.5 4.067 9.067 2.5 11 2.5ZM7.5 9V21.5H16.5V9C14.5661 5.42321 9.43388 5.42321 7.5 9Z" fill="currentColor"/>
</svg>
