<svg width="64" height="64" viewBox="0 0 24 24" fill="currentColor" xmlns="http://www.w3.org/2000/svg">
<path fill-rule="evenodd" clip-rule="evenodd" d="M22 12C22 17.5228 17.5228 22 12 22C6.47715 22 2 17.5228 2 12C2 6.47715 6.47715 2 12 2C17.5228 2 22 6.47715 22 12Z" fill="currentColor"/>
<path d="M12 2.5C17.2467 2.5 21.5 6.75329 21.5 12C21.5 17.2467 17.2467 21.5 12 21.5C6.75329 21.5 2.5 17.2467 2.5 12C2.5 6.75329 6.75329 2.5 12 2.5Z" stroke="currentColor"/>
<path fill-rule="evenodd" clip-rule="evenodd" d="M18.2071 9.20706L10.5 16.9142L5.79291 12.2071L7.20712 10.7928L10.5 14.0857L16.7929 7.79285L18.2071 9.20706Z" fill="currentColor"/>
</svg>
