<svg width="64" height="64" viewBox="0 0 24 24" fill="currentColor" xmlns="http://www.w3.org/2000/svg">
<path fill-rule="evenodd" clip-rule="evenodd" d="M22 12C22 17.5228 17.5228 22 12 22C6.47715 22 2 17.5228 2 12C2 6.47715 6.47715 2 12 2C17.5228 2 22 6.47715 22 12Z" fill="currentColor"/>
<path d="M12 2.5C17.2467 2.5 21.5 6.75329 21.5 12C21.5 17.2467 17.2467 21.5 12 21.5C6.75329 21.5 2.5 17.2467 2.5 12C2.5 6.75329 6.75329 2.5 12 2.5Z" stroke="currentColor"/>
<path fill-rule="evenodd" clip-rule="evenodd" d="M13.2071 6.79297L18.4142 12.0001L13.2071 17.2072L11.7929 15.793L14.5858 13.0001H6V11.0001H14.5858L11.7929 8.20718L13.2071 6.79297Z" fill="currentColor"/>
</svg>
