<svg width="64" height="64" viewBox="0 0 24 24" fill="currentColor" xmlns="http://www.w3.org/2000/svg">
<path fill-rule="evenodd" clip-rule="evenodd" d="M12.1969 0.0200342L12.0816 0.00343268C11.508 -0.0441781 10.9997 0.4093 10.9996 1.00148V15.0005H9.00156C8.25783 15.0008 7.77356 15.7833 8.10605 16.4487L11.1041 22.4458C11.473 23.1833 12.526 23.1831 12.8951 22.4458L15.8932 16.4487C16.2259 15.7828 15.7412 15.0005 14.9977 15.0005H12.9996V11.5005H15.9996C16.5519 11.5005 16.9996 11.0528 16.9996 10.5005C16.9996 9.94822 16.5519 9.5005 15.9996 9.5005H12.9996V8.0005H18.9996C19.5518 8.0005 19.9994 7.5526 19.9996 7.0005C19.9996 6.44822 19.5519 6.0005 18.9996 6.0005H12.9996V4.81984L19.691 3.48195C20.7637 3.26722 20.7637 1.73378 19.691 1.51906L12.1969 0.0200342Z" fill="currentColor"/>
</svg>
