<svg width="64" height="64" viewBox="0 0 24 24" fill="currentColor" xmlns="http://www.w3.org/2000/svg">
<path d="M12.3672 1.0602L12.2373 1.03578C11.5913 0.95294 11.0001 1.45669 11 2.12758V23.9997H13V17H16C16.5523 17 17 16.5523 17 16C17 15.4477 16.5523 15 16 15H13V13.5H19C19.5523 13.5 20 13.0523 20 12.5C20 11.9477 19.5523 11.5 19 11.5H13V10H19C19.5523 10 20 9.55229 20 9C20 8.44773 19.5523 8 19 8H13V6.77992L19.8545 5.06703C20.9654 4.78929 20.9654 3.21 19.8545 2.93227L12.3672 1.0602Z" fill="currentColor"/>
</svg>
