<svg width="64" height="64" viewBox="0 0 24 24" fill="currentColor" xmlns="http://www.w3.org/2000/svg">
<path fill-rule="evenodd" clip-rule="evenodd" d="M18.9996 0C19.5519 0 19.9996 0.447715 19.9996 1C19.9996 1.55228 19.5519 2 18.9996 2H12.9996V3.5H18.9996C19.5519 3.5 19.9996 3.94772 19.9996 4.5C19.9996 5.05228 19.5519 5.5 18.9996 5.5H12.9996V15H14.9976C15.7412 15 16.2259 15.7823 15.8932 16.4482L12.8951 22.4453C12.5261 23.1829 11.473 23.183 11.1041 22.4453L8.10604 16.4482C7.7737 15.7828 8.2579 15.0003 9.00155 15H10.9996V1C10.9996 0.447845 11.4475 0.000210999 11.9996 0H18.9996ZM11.9996 19.7637L13.3814 17H10.6178L11.9996 19.7637Z" fill="currentColor"/>
</svg>
