<svg xmlns="http://www.w3.org/2000/svg" viewBox="0 0 64 64" role="img" data-origin="generated-owned-artwork" data-style-contract="helm-openbridge-navigation-v1" data-repair-batch="standard-repair-batch49"><title>TOPSHP25 compact TOPSHP square board repair candidate</title><g stroke-linecap="round" stroke-linejoin="round"><defs><clipPath id="clip_TOPSHP25"><rect x="19" y="17" width="26" height="26"/></clipPath></defs><rect x="19.0" y="17.0" width="6.5" height="6.5" fill="var(--white)" clip-path="url(#clip_TOPSHP25)" data-pattern="s57-colpat6-square-board"/><rect x="25.5" y="17.0" width="6.5" height="6.5" fill="var(--orange)" clip-path="url(#clip_TOPSHP25)" data-pattern="s57-colpat6-square-board"/><rect x="32.0" y="17.0" width="6.5" height="6.5" fill="var(--white)" clip-path="url(#clip_TOPSHP25)" data-pattern="s57-colpat6-square-board"/><rect x="38.5" y="17.0" width="6.5" height="6.5" fill="var(--orange)" clip-path="url(#clip_TOPSHP25)" data-pattern="s57-colpat6-square-board"/><rect x="19.0" y="23.5" width="6.5" height="6.5" fill="var(--orange)" clip-path="url(#clip_TOPSHP25)" data-pattern="s57-colpat6-square-board"/><rect x="25.5" y="23.5" width="6.5" height="6.5" fill="var(--white)" clip-path="url(#clip_TOPSHP25)" data-pattern="s57-colpat6-square-board"/><rect x="32.0" y="23.5" width="6.5" height="6.5" fill="var(--orange)" clip-path="url(#clip_TOPSHP25)" data-pattern="s57-colpat6-square-board"/><rect x="38.5" y="23.5" width="6.5" height="6.5" fill="var(--white)" clip-path="url(#clip_TOPSHP25)" data-pattern="s57-colpat6-square-board"/><rect x="19.0" y="30.0" width="6.5" height="6.5" fill="var(--white)" clip-path="url(#clip_TOPSHP25)" data-pattern="s57-colpat6-square-board"/><rect x="25.5" y="30.0" width="6.5" height="6.5" fill="var(--orange)" clip-path="url(#clip_TOPSHP25)" data-pattern="s57-colpat6-square-board"/><rect x="32.0" y="30.0" width="6.5" height="6.5" fill="var(--white)" clip-path="url(#clip_TOPSHP25)" data-pattern="s57-colpat6-square-board"/><rect x="38.5" y="30.0" width="6.5" height="6.5" fill="var(--orange)" clip-path="url(#clip_TOPSHP25)" data-pattern="s57-colpat6-square-board"/><rect x="19.0" y="36.5" width="6.5" height="6.5" fill="var(--orange)" clip-path="url(#clip_TOPSHP25)" data-pattern="s57-colpat6-square-board"/><rect x="25.5" y="36.5" width="6.5" height="6.5" fill="var(--white)" clip-path="url(#clip_TOPSHP25)" data-pattern="s57-colpat6-square-board"/><rect x="32.0" y="36.5" width="6.5" height="6.5" fill="var(--orange)" clip-path="url(#clip_TOPSHP25)" data-pattern="s57-colpat6-square-board"/><rect x="38.5" y="36.5" width="6.5" height="6.5" fill="var(--white)" clip-path="url(#clip_TOPSHP25)" data-pattern="s57-colpat6-square-board"/><rect x="19" y="17" width="26" height="26" fill="none" stroke="var(--black)" stroke-width="3"/><path d="M32 43 V56" fill="none" stroke="var(--black)" stroke-width="3"/></g></svg>
