<svg xmlns="http://www.w3.org/2000/svg" viewBox="0 0 64 64" role="img" data-origin="generated-owned-artwork" data-style-contract="helm-openbridge-navigation-v1" data-repair-batch="standard-repair-batch67"><title>BOYBAR01 barrel buoy parity repair candidate</title><g stroke-linecap="round" stroke-linejoin="round"><defs><clipPath id="clip_BOYBAR01"><path d="M20 32 Q20 24 26 22 H38 Q44 24 44 32 V41 Q44 48 38 50 H26 Q20 48 20 41 Z"/></clipPath></defs><rect x="18" y="22.00" width="28" height="14.00" fill="var(--red)" clip-path="url(#clip_BOYBAR01)" data-pattern="horizontal-barrel-band"/><rect x="18" y="36.00" width="28" height="14.00" fill="var(--black)" clip-path="url(#clip_BOYBAR01)" data-pattern="horizontal-barrel-band"/><path d="M20 32 Q20 24 26 22 H38 Q44 24 44 32 V41 Q44 48 38 50 H26 Q20 48 20 41 Z" fill="none" stroke="var(--black)" stroke-width="3"/><path d="M20 39 H44 M26 22 V17 H38 V22 M32 50 V55" fill="none" stroke="var(--black)" stroke-width="2.6"/></g></svg>
