<svg xmlns="http://www.w3.org/2000/svg" viewBox="0 0 64 64" role="img" data-origin="generated-owned-artwork" data-style-contract="helm-openbridge-navigation-v1" data-repair-batch="standard-repair-batch19"><title>UWTROC03 wreck rock hazard repair batch 27 candidate</title><g stroke-linecap="round" stroke-linejoin="round"><circle cx="32" cy="32" r="20" fill="var(--blue)" stroke="none"/><circle cx="52.0" cy="32.0" r="2.2" fill="var(--black)" stroke="none"/><circle cx="51.0" cy="38.2" r="2.2" fill="var(--black)" stroke="none"/><circle cx="48.2" cy="43.8" r="2.2" fill="var(--black)" stroke="none"/><circle cx="43.8" cy="48.2" r="2.2" fill="var(--black)" stroke="none"/><circle cx="38.2" cy="51.0" r="2.2" fill="var(--black)" stroke="none"/><circle cx="32.0" cy="52.0" r="2.2" fill="var(--black)" stroke="none"/><circle cx="25.8" cy="51.0" r="2.2" fill="var(--black)" stroke="none"/><circle cx="20.2" cy="48.2" r="2.2" fill="var(--black)" stroke="none"/><circle cx="15.8" cy="43.8" r="2.2" fill="var(--black)" stroke="none"/><circle cx="13.0" cy="38.2" r="2.2" fill="var(--black)" stroke="none"/><circle cx="12.0" cy="32.0" r="2.2" fill="var(--black)" stroke="none"/><circle cx="13.0" cy="25.8" r="2.2" fill="var(--black)" stroke="none"/><circle cx="15.8" cy="20.2" r="2.2" fill="var(--black)" stroke="none"/><circle cx="20.2" cy="15.8" r="2.2" fill="var(--black)" stroke="none"/><circle cx="25.8" cy="13.0" r="2.2" fill="var(--black)" stroke="none"/><circle cx="32.0" cy="12.0" r="2.2" fill="var(--black)" stroke="none"/><circle cx="38.2" cy="13.0" r="2.2" fill="var(--black)" stroke="none"/><circle cx="43.8" cy="15.8" r="2.2" fill="var(--black)" stroke="none"/><circle cx="48.2" cy="20.2" r="2.2" fill="var(--black)" stroke="none"/><circle cx="51.0" cy="25.8" r="2.2" fill="var(--black)" stroke="none"/><path d="M32 17 V47 M17 32 H47" fill="none" stroke="var(--black)" stroke-width="6"/></g></svg>
