<svg xmlns="http://www.w3.org/2000/svg" viewBox="0 0 64 64" role="img" data-origin="generated-owned-artwork" data-style-contract="helm-openbridge-navigation-v1" data-repair-batch="standard-repair-batch6"><title>BOYPIL78 standard repair batch 14 candidate</title><g stroke-linecap="round" stroke-linejoin="round"><defs><clipPath id="clip-BOYPIL78"><path d="M24 13 H40 L45 49 Q32 57 19 49 Z"/></clipPath></defs><g clip-path="url(#clip-BOYPIL78)"><rect x="0" y="0" width="16" height="12.8" fill="#8f3338"/><rect x="16" y="0" width="16" height="12.8" fill="#b9b0a1"/><rect x="32" y="0" width="16" height="12.8" fill="#8f3338"/><rect x="48" y="0" width="16" height="12.8" fill="#b9b0a1"/><rect x="0" y="12.8" width="16" height="12.8" fill="#b9b0a1"/><rect x="16" y="12.8" width="16" height="12.8" fill="#8f3338"/><rect x="32" y="12.8" width="16" height="12.8" fill="#b9b0a1"/><rect x="48" y="12.8" width="16" height="12.8" fill="#8f3338"/><rect x="0" y="25.6" width="16" height="12.8" fill="#8f3338"/><rect x="16" y="25.6" width="16" height="12.8" fill="#b9b0a1"/><rect x="32" y="25.6" width="16" height="12.8" fill="#8f3338"/><rect x="48" y="25.6" width="16" height="12.8" fill="#b9b0a1"/><rect x="0" y="38.4" width="16" height="12.8" fill="#b9b0a1"/><rect x="16" y="38.4" width="16" height="12.8" fill="#8f3338"/><rect x="32" y="38.4" width="16" height="12.8" fill="#b9b0a1"/><rect x="48" y="38.4" width="16" height="12.8" fill="#8f3338"/><rect x="0" y="51.2" width="16" height="12.8" fill="#8f3338"/><rect x="16" y="51.2" width="16" height="12.8" fill="#b9b0a1"/><rect x="32" y="51.2" width="16" height="12.8" fill="#8f3338"/><rect x="48" y="51.2" width="16" height="12.8" fill="#b9b0a1"/><path d="M16 0 V64" fill="none" stroke="#050505" stroke-width="0.6" opacity="0.42"/><path d="M32 0 V64" fill="none" stroke="#050505" stroke-width="0.6" opacity="0.42"/><path d="M48 0 V64" fill="none" stroke="#050505" stroke-width="0.6" opacity="0.42"/><path d="M0 12.8 H64" fill="none" stroke="#050505" stroke-width="0.6" opacity="0.42"/><path d="M0 25.6 H64" fill="none" stroke="#050505" stroke-width="0.6" opacity="0.42"/><path d="M0 38.4 H64" fill="none" stroke="#050505" stroke-width="0.6" opacity="0.42"/><path d="M0 51.2 H64" fill="none" stroke="#050505" stroke-width="0.6" opacity="0.42"/></g><path d="M24 13 H40 L45 49 Q32 57 19 49 Z" fill="none" stroke="#050505" stroke-width="2.4"/><path d="M32 55 V61" fill="none" stroke="#050505" stroke-width="1.5"/></g></svg>
