<svg xmlns="http://www.w3.org/2000/svg" viewBox="0 0 64 64" role="img" data-origin="generated-owned-artwork" data-style-contract="helm-openbridge-navigation-v1" data-repair-batch="standard-repair-batch93"><title>CROSSX02 strict line/pattern repair candidate</title><g stroke-linecap="round" stroke-linejoin="round"><path d="M25.8 28 L30.2 28" fill="none" stroke="#9a7c3d" stroke-width="0.75"/><path d="M28 25.8 L28 30.2" fill="none" stroke="#9a7c3d" stroke-width="0.75"/><path d="M26.4 26.4 L29.6 29.6" fill="none" stroke="#9a7c3d" stroke-width="0.65"/><path d="M26.4 29.6 L29.6 26.4" fill="none" stroke="#9a7c3d" stroke-width="0.65"/><path d="M28.8 28 L33.2 28" fill="none" stroke="#9a7c3d" stroke-width="0.75"/><path d="M31 25.8 L31 30.2" fill="none" stroke="#9a7c3d" stroke-width="0.75"/><path d="M29.4 26.4 L32.6 29.6" fill="none" stroke="#9a7c3d" stroke-width="0.65"/><path d="M29.4 29.6 L32.6 26.4" fill="none" stroke="#9a7c3d" stroke-width="0.65"/><path d="M31.8 28 L36.2 28" fill="none" stroke="#9a7c3d" stroke-width="0.75"/><path d="M34 25.8 L34 30.2" fill="none" stroke="#9a7c3d" stroke-width="0.75"/><path d="M32.4 26.4 L35.6 29.6" fill="none" stroke="#9a7c3d" stroke-width="0.65"/><path d="M32.4 29.6 L35.6 26.4" fill="none" stroke="#9a7c3d" stroke-width="0.65"/><path d="M34.8 28 L39.2 28" fill="none" stroke="#9a7c3d" stroke-width="0.75"/><path d="M37 25.8 L37 30.2" fill="none" stroke="#9a7c3d" stroke-width="0.75"/><path d="M35.4 26.4 L38.6 29.6" fill="none" stroke="#9a7c3d" stroke-width="0.65"/><path d="M35.4 29.6 L38.6 26.4" fill="none" stroke="#9a7c3d" stroke-width="0.65"/><path d="M25.8 31 L30.2 31" fill="none" stroke="#9a7c3d" stroke-width="0.75"/><path d="M28 28.8 L28 33.2" fill="none" stroke="#9a7c3d" stroke-width="0.75"/><path d="M26.4 29.4 L29.6 32.6" fill="none" stroke="#9a7c3d" stroke-width="0.65"/><path d="M26.4 32.6 L29.6 29.4" fill="none" stroke="#9a7c3d" stroke-width="0.65"/><path d="M28.8 31 L33.2 31" fill="none" stroke="#9a7c3d" stroke-width="0.75"/><path d="M31 28.8 L31 33.2" fill="none" stroke="#9a7c3d" stroke-width="0.75"/><path d="M29.4 29.4 L32.6 32.6" fill="none" stroke="#9a7c3d" stroke-width="0.65"/><path d="M29.4 32.6 L32.6 29.4" fill="none" stroke="#9a7c3d" stroke-width="0.65"/><path d="M31.8 31 L36.2 31" fill="none" stroke="#9a7c3d" stroke-width="0.75"/><path d="M34 28.8 L34 33.2" fill="none" stroke="#9a7c3d" stroke-width="0.75"/><path d="M32.4 29.4 L35.6 32.6" fill="none" stroke="#9a7c3d" stroke-width="0.65"/><path d="M32.4 32.6 L35.6 29.4" fill="none" stroke="#9a7c3d" stroke-width="0.65"/><path d="M34.8 31 L39.2 31" fill="none" stroke="#9a7c3d" stroke-width="0.75"/><path d="M37 28.8 L37 33.2" fill="none" stroke="#9a7c3d" stroke-width="0.75"/><path d="M35.4 29.4 L38.6 32.6" fill="none" stroke="#9a7c3d" stroke-width="0.65"/><path d="M35.4 32.6 L38.6 29.4" fill="none" stroke="#9a7c3d" stroke-width="0.65"/><path d="M25.8 34 L30.2 34" fill="none" stroke="#9a7c3d" stroke-width="0.75"/><path d="M28 31.8 L28 36.2" fill="none" stroke="#9a7c3d" stroke-width="0.75"/><path d="M26.4 32.4 L29.6 35.6" fill="none" stroke="#9a7c3d" stroke-width="0.65"/><path d="M26.4 35.6 L29.6 32.4" fill="none" stroke="#9a7c3d" stroke-width="0.65"/><path d="M28.8 34 L33.2 34" fill="none" stroke="#9a7c3d" stroke-width="0.75"/><path d="M31 31.8 L31 36.2" fill="none" stroke="#9a7c3d" stroke-width="0.75"/><path d="M29.4 32.4 L32.6 35.6" fill="none" stroke="#9a7c3d" stroke-width="0.65"/><path d="M29.4 35.6 L32.6 32.4" fill="none" stroke="#9a7c3d" stroke-width="0.65"/><path d="M31.8 34 L36.2 34" fill="none" stroke="#9a7c3d" stroke-width="0.75"/><path d="M34 31.8 L34 36.2" fill="none" stroke="#9a7c3d" stroke-width="0.75"/><path d="M32.4 32.4 L35.6 35.6" fill="none" stroke="#9a7c3d" stroke-width="0.65"/><path d="M32.4 35.6 L35.6 32.4" fill="none" stroke="#9a7c3d" stroke-width="0.65"/><path d="M34.8 34 L39.2 34" fill="none" stroke="#9a7c3d" stroke-width="0.75"/><path d="M37 31.8 L37 36.2" fill="none" stroke="#9a7c3d" stroke-width="0.75"/><path d="M35.4 32.4 L38.6 35.6" fill="none" stroke="#9a7c3d" stroke-width="0.65"/><path d="M35.4 35.6 L38.6 32.4" fill="none" stroke="#9a7c3d" stroke-width="0.65"/><path d="M25.8 37 L30.2 37" fill="none" stroke="#9a7c3d" stroke-width="0.75"/><path d="M28 34.8 L28 39.2" fill="none" stroke="#9a7c3d" stroke-width="0.75"/><path d="M26.4 35.4 L29.6 38.6" fill="none" stroke="#9a7c3d" stroke-width="0.65"/><path d="M26.4 38.6 L29.6 35.4" fill="none" stroke="#9a7c3d" stroke-width="0.65"/><path d="M28.8 37 L33.2 37" fill="none" stroke="#9a7c3d" stroke-width="0.75"/><path d="M31 34.8 L31 39.2" fill="none" stroke="#9a7c3d" stroke-width="0.75"/><path d="M29.4 35.4 L32.6 38.6" fill="none" stroke="#9a7c3d" stroke-width="0.65"/><path d="M29.4 38.6 L32.6 35.4" fill="none" stroke="#9a7c3d" stroke-width="0.65"/><path d="M31.8 37 L36.2 37" fill="none" stroke="#9a7c3d" stroke-width="0.75"/><path d="M34 34.8 L34 39.2" fill="none" stroke="#9a7c3d" stroke-width="0.75"/><path d="M32.4 35.4 L35.6 38.6" fill="none" stroke="#9a7c3d" stroke-width="0.65"/><path d="M32.4 38.6 L35.6 35.4" fill="none" stroke="#9a7c3d" stroke-width="0.65"/><path d="M34.8 37 L39.2 37" fill="none" stroke="#9a7c3d" stroke-width="0.75"/><path d="M37 34.8 L37 39.2" fill="none" stroke="#9a7c3d" stroke-width="0.75"/><path d="M35.4 35.4 L38.6 38.6" fill="none" stroke="#9a7c3d" stroke-width="0.65"/><path d="M35.4 38.6 L38.6 35.4" fill="none" stroke="#9a7c3d" stroke-width="0.65"/></g></svg>
