<svg xmlns="http://www.w3.org/2000/svg" viewBox="0 0 64 64" role="img" data-origin="generated-owned-artwork" data-style-contract="helm-openbridge-navigation-v1" data-repair-batch="standard-repair-batch19"><title>WRECKS05 wreck rock hazard repair batch 27 candidate</title><g stroke-linecap="round" stroke-linejoin="round"><path d="M11 26 C16 16 27 12 38 15 C47 18 53 25 53 32 C53 40 45 47 34 49 C22 50 13 43 10 35 Z" fill="#7695ab" stroke="none"/><circle cx="53.0" cy="32.0" r="2.2" fill="#14120f" stroke="none"/><circle cx="51.7" cy="37.8" r="2.2" fill="#14120f" stroke="none"/><circle cx="48.1" cy="42.9" r="2.2" fill="#14120f" stroke="none"/><circle cx="42.5" cy="46.7" r="2.2" fill="#14120f" stroke="none"/><circle cx="35.6" cy="48.7" r="2.2" fill="#14120f" stroke="none"/><circle cx="28.4" cy="48.7" r="2.2" fill="#14120f" stroke="none"/><circle cx="21.5" cy="46.7" r="2.2" fill="#14120f" stroke="none"/><circle cx="15.9" cy="42.9" r="2.2" fill="#14120f" stroke="none"/><circle cx="12.3" cy="37.8" r="2.2" fill="#14120f" stroke="none"/><circle cx="11.0" cy="32.0" r="2.2" fill="#14120f" stroke="none"/><circle cx="12.3" cy="26.2" r="2.2" fill="#14120f" stroke="none"/><circle cx="15.9" cy="21.1" r="2.2" fill="#14120f" stroke="none"/><circle cx="21.5" cy="17.3" r="2.2" fill="#14120f" stroke="none"/><circle cx="28.4" cy="15.3" r="2.2" fill="#14120f" stroke="none"/><circle cx="35.6" cy="15.3" r="2.2" fill="#14120f" stroke="none"/><circle cx="42.5" cy="17.3" r="2.2" fill="#14120f" stroke="none"/><circle cx="48.1" cy="21.1" r="2.2" fill="#14120f" stroke="none"/><circle cx="51.7" cy="26.2" r="2.2" fill="#14120f" stroke="none"/><path d="M17 32 H48" fill="none" stroke="#14120f" stroke-width="4.2"/><path d="M24 22 V42 M32 18 V46 M40 22 V42" fill="none" stroke="#14120f" stroke-width="4.2"/></g></svg>
