<svg xmlns="http://www.w3.org/2000/svg" viewBox="0 0 64 64" role="img" data-origin="generated-owned-artwork" data-style-contract="helm-openbridge-navigation-v1" data-repair-batch="standard-repair-batch4"><title>BOYCON81 standard repair batch 12 candidate</title><g stroke-linecap="round" stroke-linejoin="round"><defs><clipPath id="clip-BOYCON81"><path d="M32 10 L50 50 Q32 57 14 50 Z"/></clipPath></defs><g clip-path="url(#clip-BOYCON81)"><rect x="0" y="0" width="64" height="16" fill="var(--blue)"/><rect x="0" y="16" width="64" height="16" fill="var(--red)"/><rect x="0" y="32" width="64" height="16" fill="var(--white)"/><rect x="0" y="48" width="64" height="16" fill="var(--blue)"/><rect x="0" y="0" width="16" height="64" fill="var(--blue)" opacity="0.48"/><rect x="16" y="0" width="16" height="64" fill="var(--red)" opacity="0.48"/><rect x="32" y="0" width="16" height="64" fill="var(--white)" opacity="0.48"/><rect x="48" y="0" width="16" height="64" fill="var(--blue)" opacity="0.48"/></g><path d="M12 16 H52" stroke="var(--black)" stroke-width="0.75" opacity="0.5"/><path d="M16 10 V54" stroke="var(--black)" stroke-width="0.75" opacity="0.5"/><path d="M12 32 H52" stroke="var(--black)" stroke-width="0.75" opacity="0.5"/><path d="M32 10 V54" stroke="var(--black)" stroke-width="0.75" opacity="0.5"/><path d="M12 48 H52" stroke="var(--black)" stroke-width="0.75" opacity="0.5"/><path d="M48 10 V54" stroke="var(--black)" stroke-width="0.75" opacity="0.5"/><path d="M32 10 L50 50 Q32 57 14 50 Z" fill="none" stroke="var(--black)" stroke-width="2.4"/><path d="M32 55 V61" fill="none" stroke="var(--black)" stroke-width="1.5"/></g></svg>
