<svg xmlns="http://www.w3.org/2000/svg" viewBox="0 0 64 64" role="img" data-origin="generated-owned-artwork" data-style-contract="helm-openbridge-navigation-v1" data-repair-batch="standard-repair-batch4"><title>BOYPIL78 standard repair batch 12 candidate</title><g stroke-linecap="round" stroke-linejoin="round"><defs><clipPath id="clip-BOYPIL78"><path d="M24 13 H40 L45 49 Q32 57 19 49 Z"/></clipPath></defs><g clip-path="url(#clip-BOYPIL78)"><rect x="0" y="0" width="16" height="12.8" fill="var(--red)"/><rect x="16" y="0" width="16" height="12.8" fill="var(--white)"/><rect x="32" y="0" width="16" height="12.8" fill="var(--red)"/><rect x="48" y="0" width="16" height="12.8" fill="var(--white)"/><rect x="0" y="12.8" width="16" height="12.8" fill="var(--white)"/><rect x="16" y="12.8" width="16" height="12.8" fill="var(--red)"/><rect x="32" y="12.8" width="16" height="12.8" fill="var(--white)"/><rect x="48" y="12.8" width="16" height="12.8" fill="var(--red)"/><rect x="0" y="25.6" width="16" height="12.8" fill="var(--red)"/><rect x="16" y="25.6" width="16" height="12.8" fill="var(--white)"/><rect x="32" y="25.6" width="16" height="12.8" fill="var(--red)"/><rect x="48" y="25.6" width="16" height="12.8" fill="var(--white)"/><rect x="0" y="38.4" width="16" height="12.8" fill="var(--white)"/><rect x="16" y="38.4" width="16" height="12.8" fill="var(--red)"/><rect x="32" y="38.4" width="16" height="12.8" fill="var(--white)"/><rect x="48" y="38.4" width="16" height="12.8" fill="var(--red)"/><rect x="0" y="51.2" width="16" height="12.8" fill="var(--red)"/><rect x="16" y="51.2" width="16" height="12.8" fill="var(--white)"/><rect x="32" y="51.2" width="16" height="12.8" fill="var(--red)"/><rect x="48" y="51.2" width="16" height="12.8" fill="var(--white)"/></g><path d="M16 12 V54" stroke="var(--black)" stroke-width="0.65" opacity="0.45"/><path d="M32 12 V54" stroke="var(--black)" stroke-width="0.65" opacity="0.45"/><path d="M48 12 V54" stroke="var(--black)" stroke-width="0.65" opacity="0.45"/><path d="M18 12.8 H46" stroke="var(--black)" stroke-width="0.65" opacity="0.45"/><path d="M18 25.6 H46" stroke="var(--black)" stroke-width="0.65" opacity="0.45"/><path d="M18 38.4 H46" stroke="var(--black)" stroke-width="0.65" opacity="0.45"/><path d="M18 51.2 H46" stroke="var(--black)" stroke-width="0.65" opacity="0.45"/><path d="M24 13 H40 L45 49 Q32 57 19 49 Z" fill="none" stroke="var(--black)" stroke-width="2.4"/><path d="M32 55 V61" fill="none" stroke="var(--black)" stroke-width="1.5"/></g></svg>
