<svg xmlns="http://www.w3.org/2000/svg" viewBox="0 0 64 64" role="img" data-origin="generated-owned-artwork" data-style-contract="helm-openbridge-navigation-v1" data-source-art="user-provided-BNKSTK" data-shape-family="beacon-bcnstk-bank-stake-template"><title>BCNSTK79 BCNSTK stake-beacon template</title><g stroke-linecap="round" stroke-linejoin="round"><defs><clipPath id="clip-BCNSTK79"><rect x="29.5" y="10" width="5" height="39" rx="1.1"/><rect x="30.5" y="49" width="3" height="4" rx="0.6"/><rect x="24" y="46" width="16" height="3" rx="1"/></clipPath></defs><g data-fill-pattern="3-band-horizontal"><rect x="29.5" y="10" width="5" height="13" rx="1.1" fill="var(--red)"/><rect x="29.5" y="23" width="5" height="13" fill="var(--green)"/><rect x="29.5" y="36" width="5" height="13" fill="var(--red)"/><rect x="30.5" y="49" width="3" height="4" rx="0.6" fill="var(--red)"/><rect x="24" y="46" width="16" height="3" rx="1" fill="var(--red)"/></g><circle data-hole-role="s101-tiny-stake-cutout" cx="32" cy="46" r="2.2" fill="var(--white)"/><g data-outline-role="outer-visible-edges" fill="none" stroke="var(--ink)" stroke-width="1.6"><path d="M30.6 10H33.4Q34.5 10 34.5 11.1V46H39Q40 46 40 47V48Q40 49 39 49H33.5V52Q33.5 53 32.5 53H31.5Q30.5 53 30.5 52V49H25Q24 49 24 48V47Q24 46 25 46H29.5V11.1Q29.5 10 30.6 10Z"/></g></g></svg>
