<svg xmlns="http://www.w3.org/2000/svg" viewBox="0 0 64 64" role="img" data-origin="generated-owned-artwork" data-style-contract="helm-openbridge-navigation-v1" data-repair-batch="standard-repair-batch68"><title>BOYBAR60 human-repaired sideways barrel buoy candidate</title><g stroke-linecap="round" stroke-linejoin="round"><path d="M18 17 H47 C55 17 59 25 59 33 C59 41 55 49 47 49 H18 C10 49 6 41 6 33 C6 25 10 17 18 17 Z" fill="var(--red)" stroke="none"/><path d="M18 17 H47 C55 17 59 25 59 33 C59 41 55 49 47 49 H18" fill="none" stroke="var(--black)" stroke-width="3"/><path d="M18 17 C27 17 30 49 18 49 C9 49 6 17 18 17" fill="none" stroke="var(--black)" stroke-width="3"/><path d="M3 36 C7 36 9 38 13 38 C18 38 19 35 24 35 C29 35 30 38 35 38 C40 38 41 35 46 35 C51 35 52 38 56 38 C59 38 60 36 61 36" fill="none" stroke="var(--black)" stroke-width="2.6"/></g></svg>
