<svg xmlns="http://www.w3.org/2000/svg" viewBox="0 0 64 64" role="img" data-origin="generated-owned-artwork" data-style-contract="helm-openbridge-navigation-v1" data-repair-batch="standard-repair-batch6"><title>BOYCON81 standard repair batch 14 candidate</title><g stroke-linecap="round" stroke-linejoin="round"><defs><clipPath id="clip-BOYCON81"><path d="M32 10 L50 50 Q32 57 14 50 Z"/></clipPath></defs><g clip-path="url(#clip-BOYCON81)"><rect x="0" y="0" width="64" height="16" fill="var(--blue)"/><rect x="0" y="16" width="64" height="16" fill="var(--red)"/><rect x="0" y="32" width="64" height="16" fill="var(--white)"/><rect x="0" y="48" width="64" height="16" fill="var(--blue)"/><rect x="0" y="0" width="16" height="64" fill="var(--blue)" opacity="0.46"/><rect x="16" y="0" width="16" height="64" fill="var(--red)" opacity="0.46"/><rect x="32" y="0" width="16" height="64" fill="var(--white)" opacity="0.46"/><rect x="48" y="0" width="16" height="64" fill="var(--blue)" opacity="0.46"/><path d="M0 16 H64" fill="none" stroke="var(--black)" stroke-width="0.65" opacity="0.45"/><path d="M16 0 V64" fill="none" stroke="var(--black)" stroke-width="0.65" opacity="0.45"/><path d="M0 32 H64" fill="none" stroke="var(--black)" stroke-width="0.65" opacity="0.45"/><path d="M32 0 V64" fill="none" stroke="var(--black)" stroke-width="0.65" opacity="0.45"/><path d="M0 48 H64" fill="none" stroke="var(--black)" stroke-width="0.65" opacity="0.45"/><path d="M48 0 V64" fill="none" stroke="var(--black)" stroke-width="0.65" opacity="0.45"/></g><path d="M32 10 L50 50 Q32 57 14 50 Z" fill="none" stroke="var(--black)" stroke-width="2.4"/><path d="M32 55 V61" fill="none" stroke="var(--black)" stroke-width="1.5"/></g></svg>
