<svg xmlns="http://www.w3.org/2000/svg" viewBox="0 0 64 64" role="img" data-origin="generated-owned-artwork" data-style-contract="helm-openbridge-navigation-v1" data-repair-batch="standard-repair-batch51"><title>TOWERS94 tower silhouette repair candidate</title><g stroke-linecap="round" stroke-linejoin="round"><defs><clipPath id="clip_TOWERS94"><polygon points="25,12 39,12 49,52 15,52"/></clipPath></defs><rect x="13" y="10" width="38" height="44" fill="var(--black)" clip-path="url(#clip_TOWERS94)"/><rect x="-36" y="8" width="10" height="70" transform="rotate(35 -36 8)" fill="var(--white)" clip-path="url(#clip_TOWERS94)" data-pattern="diagonal-tower"/><rect x="-18" y="8" width="10" height="70" transform="rotate(35 -18 8)" fill="var(--white)" clip-path="url(#clip_TOWERS94)" data-pattern="diagonal-tower"/><rect x="0" y="8" width="10" height="70" transform="rotate(35 0 8)" fill="var(--white)" clip-path="url(#clip_TOWERS94)" data-pattern="diagonal-tower"/><rect x="18" y="8" width="10" height="70" transform="rotate(35 18 8)" fill="var(--white)" clip-path="url(#clip_TOWERS94)" data-pattern="diagonal-tower"/><rect x="36" y="8" width="10" height="70" transform="rotate(35 36 8)" fill="var(--white)" clip-path="url(#clip_TOWERS94)" data-pattern="diagonal-tower"/><rect x="54" y="8" width="10" height="70" transform="rotate(35 54 8)" fill="var(--white)" clip-path="url(#clip_TOWERS94)" data-pattern="diagonal-tower"/><polygon points="25,12 39,12 49,52 15,52" fill="none" stroke="var(--black)" stroke-width="3.6"/><path d="M13 52 H51" fill="none" stroke="var(--black)" stroke-width="4"/><path d="M22 52 L40 12 M42 52 L24 12 M20 40 H44 M23 28 H41" fill="none" stroke="var(--black)" stroke-width="2" opacity="0.42"/><circle cx="32" cy="54" r="4.5" fill="var(--white)" stroke="var(--black)" stroke-width="2.5"/></g></svg>
