<svg xmlns="http://www.w3.org/2000/svg" viewBox="0 0 64 64" role="img" data-origin="generated-owned-artwork" data-style-contract="helm-openbridge-navigation-v1" data-repair-batch="standard-generate-batch89"><title>FSHHAV02 line/pattern candidate</title><g stroke-linecap="round" stroke-linejoin="round"><path d="M17 24 Q22 20 28 24 Q22 28 17 24 Z" fill="none" stroke="var(--black)" stroke-width="1.5"/><path d="M17 24 L13 20 M17 24 L13 28" fill="none" stroke="var(--black)" stroke-width="1.4"/><path d="M37 25 Q42 21 48 25 Q42 29 37 25 Z" fill="none" stroke="var(--black)" stroke-width="1.5"/><path d="M37 25 L33 21 M37 25 L33 29" fill="none" stroke="var(--black)" stroke-width="1.4"/><path d="M23 42 Q28 38 34 42 Q28 46 23 42 Z" fill="none" stroke="var(--black)" stroke-width="1.5"/><path d="M23 42 L19 38 M23 42 L19 46" fill="none" stroke="var(--black)" stroke-width="1.4"/><path d="M43 43 Q48 39 54 43 Q48 47 43 43 Z" fill="none" stroke="var(--black)" stroke-width="1.5"/><path d="M43 43 L39 39 M43 43 L39 47" fill="none" stroke="var(--black)" stroke-width="1.4"/></g></svg>
