<svg xmlns="http://www.w3.org/2000/svg" viewBox="0 0 64 64" role="img" data-origin="generated-owned-artwork" data-style-contract="helm-openbridge-navigation-v1" data-repair-batch="standard-repair-batch5"><title>BOYSPH70 standard repair batch 13 candidate</title><g stroke-linecap="round" stroke-linejoin="round"><defs><clipPath id="clip-BOYSPH70"><path d="M32 15 C44 15 50 25 47 39 C44 51 32 56 20 49 C11 43 13 25 22 18 C25 16 28 15 32 15 Z"/></clipPath></defs><g clip-path="url(#clip-BOYSPH70)"><rect x="0" y="0" width="64" height="21.3333" fill="var(--black)"/><rect x="0" y="21.3333" width="64" height="21.3333" fill="var(--yellow)"/><rect x="0" y="42.6667" width="64" height="21.3333" fill="var(--black)"/></g><path d="M13 21.3333 H51" fill="none" stroke="var(--black)" stroke-width="0.8" opacity="0.55"/><path d="M13 42.6667 H51" fill="none" stroke="var(--black)" stroke-width="0.8" opacity="0.55"/><path d="M32 15 C44 15 50 25 47 39 C44 51 32 56 20 49 C11 43 13 25 22 18 C25 16 28 15 32 15 Z" fill="none" stroke="var(--black)" stroke-width="2.4"/><path d="M32 55 V61" fill="none" stroke="var(--black)" stroke-width="1.5"/></g></svg>
