<svg xmlns="http://www.w3.org/2000/svg" viewBox="0 0 64 64" role="img" data-origin="generated-owned-artwork" data-style-contract="helm-openbridge-navigation-v1" data-repair-batch="standard-repair-batch5"><title>BOYSUP65 standard repair batch 13 candidate</title><g stroke-linecap="round" stroke-linejoin="round"><defs><clipPath id="clip-BOYSUP65"><path d="M17 24 C17 15 25 10 32 10 C39 10 47 15 47 24 V43 C47 52 39 57 32 57 C25 57 17 52 17 43 Z"/></clipPath></defs><g clip-path="url(#clip-BOYSUP65)"><rect x="0" y="0" width="32" height="64" fill="var(--red)"/><rect x="32" y="0" width="32" height="64" fill="var(--white)"/></g><path d="M32 10 V55" fill="none" stroke="var(--black)" stroke-width="0.8" opacity="0.55"/><path d="M17 24 C17 15 25 10 32 10 C39 10 47 15 47 24 V43 C47 52 39 57 32 57 C25 57 17 52 17 43 Z" fill="none" stroke="var(--black)" stroke-width="2.4"/><path d="M32 55 V61" fill="none" stroke="var(--black)" stroke-width="1.5"/></g></svg>
